<?xml version="1.0" standalone="no"?>
<!DOCTYPE svg PUBLIC "-//W3C//DTD SVG 20010904//EN"
 "http://www.w3.org/TR/2001/REC-SVG-20010904/DTD/svg10.dtd">
<svg version="1.0" xmlns="http://www.w3.org/2000/svg"
 width="200.000000pt" height="200.000000pt" viewBox="0 0 200.000000 200.000000"
 preserveAspectRatio="xMidYMid meet">
<metadata>
Created by potrace 1.11, written by Peter Selinger 2001-2013
</metadata>
<g transform="translate(0.000000,200.000000) scale(0.100000,-0.100000)"
fill="#000000" stroke="none">
<path d="M0 1000 l0 -1000 1000 0 1000 0 0 1000 0 1000 -1000 0 -1000 0 0
-1000z m1139 525 c110 -29 208 -93 284 -185 42 -50 97 -157 97 -188 0 -21 -72
-88 -199 -186 -75 -57 -91 -64 -72 -28 26 48 -1 102 -42 86 -20 -7 -109 -216
-105 -245 3 -21 10 -25 63 -30 117 -13 202 -10 219 7 35 35 12 65 -53 72 l-51
5 108 79 c59 44 117 89 130 101 l22 20 0 -59 c0 -216 -162 -427 -379 -495 -93
-28 -235 -28 -322 1 -113 38 -203 101 -270 190 -44 58 -89 148 -89 179 0 10
20 35 45 55 24 20 50 43 57 50 19 19 172 135 174 133 2 -1 -3 -21 -9 -45 -9
-35 -9 -45 5 -58 31 -31 54 -9 103 103 26 60 45 117 43 132 l-3 26 -130 7
c-124 7 -131 6 -147 -13 -33 -39 -15 -62 53 -69 l51 -5 -73 -52 c-41 -29 -100
-73 -131 -98 l-58 -47 0 59 c0 119 50 239 138 335 110 119 241 177 397 178 50
0 114 -7 144 -15z"/>
</g>
</svg>
